<svg id="Layer_1" data-name="Layer 1" xmlns="http://www.w3.org/2000/svg" xmlns:xlink="http://www.w3.org/1999/xlink" viewBox="0 0 1440 1188.8"><defs><style>.cls-1{fill:url(#linear-gradient);}.cls-2{fill:#fff;}.cls-3{fill:url(#linear-gradient-2);}.cls-4{fill:#9ff5d9;}.cls-5{fill:#02e49b;}.cls-6{fill:#d1faed;}.cls-7{fill:url(#linear-gradient-3);}.cls-8{fill:#53edbb;}.cls-9{fill:#d9dbdc;}.cls-10{fill:#eeeff0;}.cls-11{fill:#f9f9f9;}</style><linearGradient id="linear-gradient" x1="776.31" y1="759.33" x2="1271.42" y2="-9.03" gradientTransform="matrix(1, 0, 0, -1, 0, 1039.09)" gradientUnits="userSpaceOnUse"><stop offset="0.13" stop-color="#f9fbfb"/><stop offset="0.35" stop-color="#f6f8f8"/><stop offset="0.54" stop-color="#ebeeee"/><stop offset="0.73" stop-color="#d9dddd"/><stop offset="0.9" stop-color="#c0c5c6"/><stop offset="1" stop-color="#aeb4b6"/></linearGradient><linearGradient id="linear-gradient-2" x1="1046.95" y1="414.48" x2="1059.34" y2="168.96" gradientTransform="matrix(1, 0, 0, -1, 0, 1039.09)" gradientUnits="userSpaceOnUse"><stop offset="0.08" stop-color="#f9fbfb"/><stop offset="0.27" stop-color="#f1f4f4"/><stop offset="0.55" stop-color="#dce0e1"/><stop offset="0.89" stop-color="#babfc1"/><stop offset="1" stop-color="#aeb4b6"/></linearGradient><linearGradient id="linear-gradient-3" x1="243.01" y1="643.66" x2="359.02" y2="776.56" gradientTransform="matrix(1, 0, 0, -1, 0, 1039.09)" gradientUnits="userSpaceOnUse"><stop offset="0" stop-color="#1eb898"/><stop offset="0.16" stop-color="#1ec79c"/><stop offset="0.42" stop-color="#1ed9a2"/><stop offset="0.69" stop-color="#1ee4a5"/><stop offset="1" stop-color="#1ee7a6"/></linearGradient></defs><title>developer hero banner_desktop</title><path class="cls-1" d="M939.5,161.1a17.4,17.4,0,0,1,17.4-17.3,18.1,18.1,0,0,1,8.8,2.3l461.5,270.4a26.1,26.1,0,0,1,12.9,22.5l-.2,424a29.9,29.9,0,0,1-13.6,25.1l-348.3,227a27.8,27.8,0,0,1-28.4.4L572.8,839.6a13.7,13.7,0,0,1-5-18.8,14.1,14.1,0,0,1,4.6-4.8L937.7,588.3"/><polygon class="cls-2" points="1409.1 439.5 1408.7 857 966.4 601.7 966.4 184.4 1409.1 439.5"/><path class="cls-3" d="M1163.7,1002,748,759.1a9.9,9.9,0,0,1-3.5-13.6,9.2,9.2,0,0,1,3.1-3.4L928.2,625.3a20.1,20.1,0,0,1,21-.5l415.7,242.9a10,10,0,0,1,3.6,13.7,9.2,9.2,0,0,1-3.2,3.3l-180.7,116.8A19.7,19.7,0,0,1,1163.7,1002Z"/><path class="cls-2" d="M908,675.7,891.2,666a2.1,2.1,0,0,1-.8-2.8,4.6,4.6,0,0,1,.7-.7l17-10.8a4,4,0,0,1,4.1-.1l16.9,9.7a2.1,2.1,0,0,1,.8,2.8,4.6,4.6,0,0,1-.7.7l-17,10.8A4,4,0,0,1,908,675.7Z"/><path class="cls-2" d="M934,690.7,917.2,681a2.1,2.1,0,0,1-.8-2.8,4.6,4.6,0,0,1,.7-.7l17-10.8a4,4,0,0,1,4.1-.1l16.9,9.7a2.1,2.1,0,0,1,.8,2.8,4.6,4.6,0,0,1-.7.7l-17,10.8A4,4,0,0,1,934,690.7Z"/><path class="cls-2" d="M960,705.7,943.2,696a2.1,2.1,0,0,1-.8-2.8,4.6,4.6,0,0,1,.7-.7l17-10.8a4,4,0,0,1,4.1-.1l16.9,9.7a2.1,2.1,0,0,1,.8,2.8,4.6,4.6,0,0,1-.7.7l-17,10.8A4,4,0,0,1,960,705.7Z"/><path class="cls-2" d="M986,720.7,969.2,711a2.1,2.1,0,0,1-.8-2.8,4.6,4.6,0,0,1,.7-.7l17-10.8a4,4,0,0,1,4.1-.1l16.9,9.7a2.1,2.1,0,0,1,.8,2.8,4.6,4.6,0,0,1-.7.7l-17,10.8A4,4,0,0,1,986,720.7Z"/><path class="cls-2" d="M1012,735.7,995.2,726a2.1,2.1,0,0,1-.8-2.8,4.6,4.6,0,0,1,.7-.7l17-10.8a4,4,0,0,1,4.1-.1l16.9,9.7a2.1,2.1,0,0,1,.8,2.8,4.6,4.6,0,0,1-.7.7l-17,10.8A4,4,0,0,1,1012,735.7Z"/><path class="cls-2" d="M899,702.7,865.2,683a2.1,2.1,0,0,1-.8-2.8,4.6,4.6,0,0,1,.7-.7l17-10.8a4,4,0,0,1,4.1-.1l33.9,19.7a2.1,2.1,0,0,1,.8,2.8,4.6,4.6,0,0,1-.7.7l-17,10.8A4,4,0,0,1,899,702.7Z"/><path class="cls-2" d="M926,717.7,909.2,708a2.1,2.1,0,0,1-.8-2.8,4.6,4.6,0,0,1,.7-.7l17-10.8a4,4,0,0,1,4.1-.1l16.9,9.7a2.1,2.1,0,0,1,.8,2.8,4.6,4.6,0,0,1-.7.7l-17,10.8A4,4,0,0,1,926,717.7Z"/><path class="cls-2" d="M952,732.7,935.2,723a2.1,2.1,0,0,1-.8-2.8,4.6,4.6,0,0,1,.7-.7l17-10.8a4,4,0,0,1,4.1-.1l16.9,9.7a2.1,2.1,0,0,1,.8,2.8,4.6,4.6,0,0,1-.7.7l-17,10.8A4,4,0,0,1,952,732.7Z"/><path class="cls-2" d="M882,724.7,839.2,700a2.1,2.1,0,0,1-.8-2.8,4.6,4.6,0,0,1,.7-.7l17-10.8a4,4,0,0,1,4.1-.1l42.9,24.7a2.1,2.1,0,0,1,.8,2.8,4.6,4.6,0,0,1-.7.7l-17,10.8A4,4,0,0,1,882,724.7Z"/><path class="cls-2" d="M883,756.7,813.2,717a2.1,2.1,0,0,1-.8-2.8,4.6,4.6,0,0,1,.7-.7l17-10.8a4,4,0,0,1,4.1-.1l69.9,39.7a2.1,2.1,0,0,1,.8,2.8,4.6,4.6,0,0,1-.7.7l-17,10.8A4,4,0,0,1,883,756.7Z"/><path class="cls-2" d="M908,739.7,891.2,730a2.1,2.1,0,0,1-.8-2.8,4.6,4.6,0,0,1,.7-.7l17-10.8a4,4,0,0,1,4.1-.1l16.9,9.7a2.1,2.1,0,0,1,.8,2.8,4.6,4.6,0,0,1-.7.7l-17,10.8A4,4,0,0,1,908,739.7Z"/><path class="cls-2" d="M934,754.7,917.2,745a2.1,2.1,0,0,1-.8-2.8,4.6,4.6,0,0,1,.7-.7l17-10.8a4,4,0,0,1,4.1-.1l16.9,9.7a2.1,2.1,0,0,1,.8,2.8,4.6,4.6,0,0,1-.7.7l-17,10.8A4,4,0,0,1,934,754.7Z"/><path class="cls-2" d="M978,747.7,961.2,738a2.1,2.1,0,0,1-.8-2.8,4.6,4.6,0,0,1,.7-.7l17-10.8a4,4,0,0,1,4.1-.1l16.9,9.7a2.1,2.1,0,0,1,.8,2.8,4.6,4.6,0,0,1-.7.7l-17,10.8A4,4,0,0,1,978,747.7Z"/><path class="cls-2" d="M1323.5,886.7l-405-237.1a2.5,2.5,0,0,1-.9-3.4,3.8,3.8,0,0,1,.9-.9l15.1-9.4a5.1,5.1,0,0,1,5.2-.2l405,237.1a2.5,2.5,0,0,1,.9,3.4,2.4,2.4,0,0,1-.8.9l-15.2,9.5A5.1,5.1,0,0,1,1323.5,886.7Z"/><path class="cls-4" d="M969.5,560.7,864,499.6a11.1,11.1,0,0,1-5.5-9.6V332.8a5.5,5.5,0,0,1,5.5-5.6,5.7,5.7,0,0,1,2.8.8l82,47.4,29.1,61.4V555.9a5.6,5.6,0,0,1-5.5,5.6A6,6,0,0,1,969.5,560.7Z"/><path class="cls-5" d="M948.7,375.4l-.6,40.6a6.3,6.3,0,0,0,3.1,5.5l26.6,15.3"/><path class="cls-6" d="M200,669.2,94.5,608.1a11.1,11.1,0,0,1-5.5-9.6V441.3a5.6,5.6,0,0,1,5.5-5.6,5.4,5.4,0,0,1,2.8.8l81.9,47.4,29.1,61.4V664.4a5.6,5.6,0,0,1-5.5,5.6A5.7,5.7,0,0,1,200,669.2Z"/><path class="cls-5" d="M179.2,483.9l-.6,40.6a6.2,6.2,0,0,0,3.2,5.5l26.5,15.4"/><path class="cls-6" d="M1360.5,792.7,1255,731.6a11.1,11.1,0,0,1-5.5-9.6V564.8a5.5,5.5,0,0,1,5.5-5.6,5.7,5.7,0,0,1,2.8.8l82,47.4,29.1,61.4V787.9a5.6,5.6,0,0,1-5.5,5.6A6,6,0,0,1,1360.5,792.7Z"/><path class="cls-5" d="M1339.7,607.4l-.6,40.6a6.3,6.3,0,0,0,3.1,5.5l26.6,15.3"/><path class="cls-7" d="M383.5,409.7,278,348.6a11.1,11.1,0,0,1-5.5-9.6V181.8a5.5,5.5,0,0,1,5.5-5.6,5.7,5.7,0,0,1,2.8.8l81.9,47.4,29.1,61.4V404.9a5.5,5.5,0,0,1-5.5,5.5A5.3,5.3,0,0,1,383.5,409.7Z"/><path class="cls-8" d="M136.1,579.4l12.3-26.6a1.6,1.6,0,0,1,2.2-.8h.1l6.8,4a1.7,1.7,0,0,1,.7,2.1l-12.3,26.6a1.7,1.7,0,0,1-2.2.8c-.1,0-.1,0-.1-.1l-6.8-3.9A1.5,1.5,0,0,1,136.1,579.4Z"/><path class="cls-8" d="M111.6,555.5l6,20.1a1.5,1.5,0,0,0,2,1.1h.1l6-1.9a1.6,1.6,0,0,0,1-2l-4.6-15.3a1.7,1.7,0,0,1,1-2l15-5.1a1.6,1.6,0,0,0,1-2l-1.9-6a1.7,1.7,0,0,0-2-1.1h0l-19.9,6.7-4,1.3a1.8,1.8,0,0,0-1.1,2Z"/><path class="cls-8" d="M180.4,588.7l-19.9,6.7a1.6,1.6,0,0,1-2.1-1h0l-1.9-6a1.7,1.7,0,0,1,1-2l15-5.1a1.6,1.6,0,0,0,1-2L169,564a1.7,1.7,0,0,1,1.1-2l6-1.9a1.6,1.6,0,0,1,2,1h.1l6,20.1,1.2,4a1.7,1.7,0,0,1-1,2Z"/><path class="cls-8" d="M333.7,337V325.7a2.4,2.4,0,0,1,2.4-2.4,2.4,2.4,0,0,1,1.2.3L363,338a2.5,2.5,0,0,1,1.2,2.1v11.8a2.4,2.4,0,0,1-2.4,2.4,1.9,1.9,0,0,1-1.2-.4l-25.7-14.8A2.7,2.7,0,0,1,333.7,337Z"/><path class="cls-8" d="M330.8,304.9,322,275.3a2.5,2.5,0,0,0-3-1.7l-8.8,2.9a2.5,2.5,0,0,0-1.6,3l6.7,22.4a2.4,2.4,0,0,1-1.5,3l-22.2,7.5a2.4,2.4,0,0,0-1.5,3l2.7,8.8a2.4,2.4,0,0,0,3,1.6h.1l29.3-10,5.8-1.9a2.4,2.4,0,0,0,1.6-3Z"/><path class="cls-8" d="M1309.7,707V695.7a2.4,2.4,0,0,1,2.4-2.4,2.4,2.4,0,0,1,1.2.3L1339,708a2.5,2.5,0,0,1,1.2,2.1v11.8a2.4,2.4,0,0,1-2.4,2.4,1.9,1.9,0,0,1-1.2-.4l-25.7-14.8A2.7,2.7,0,0,1,1309.7,707Z"/><path class="cls-8" d="M1306.8,674.9l-8.8-29.6a2.5,2.5,0,0,0-3-1.7l-8.8,2.9a2.5,2.5,0,0,0-1.6,3l6.7,22.4a2.4,2.4,0,0,1-1.5,3l-22.2,7.6a2.4,2.4,0,0,0-1.5,3l2.7,8.8a2.5,2.5,0,0,0,3.1,1.6h0l29.3-10,5.8-1.9a2.4,2.4,0,0,0,1.6-3Z"/><path class="cls-9" d="M302.8,593.9l-68.4-39.4a4.2,4.2,0,0,1-2.2-3.7V535.2a2.1,2.1,0,0,1,2.2-2.1l1,.2,68.4,39.4a4.1,4.1,0,0,1,2.2,3.7V592a2.2,2.2,0,0,1-2.2,2.2A1.9,1.9,0,0,1,302.8,593.9Z"/><path class="cls-10" d="M348.6,620.3l-29-17.1a4.4,4.4,0,0,1-2.1-3.7V583.9a2.1,2.1,0,0,1,2.2-2.1,2.3,2.3,0,0,1,1.1.3l28.9,17.1a4.1,4.1,0,0,1,2.1,3.7v15.6a2.1,2.1,0,0,1-2.2,2.1A1.7,1.7,0,0,1,348.6,620.3Z"/><path class="cls-10" d="M497,705.3,365.4,628.9a4.1,4.1,0,0,1-2.1-3.7V609.5a2.1,2.1,0,0,1,2.1-2.1,2,2,0,0,1,1.1.3l131.6,76.4a4.4,4.4,0,0,1,2.1,3.7v15.7a2.1,2.1,0,0,1-2.1,2.2Z"/><path class="cls-11" d="M263.3,614.9l-29-17.2a4.1,4.1,0,0,1-2.1-3.6V578.4a2.2,2.2,0,0,1,2.2-2.1l1.1.3,28.9,17.1a4.4,4.4,0,0,1,2.1,3.7V613a2.2,2.2,0,0,1-2.2,2.2A1.9,1.9,0,0,1,263.3,614.9Z"/><path class="cls-10" d="M246.1,701.2l-11.8-7a4.4,4.4,0,0,1-2.1-3.7V674.9a2.1,2.1,0,0,1,2.2-2.1,2.3,2.3,0,0,1,1.1.3l11.8,7a4.1,4.1,0,0,1,2.1,3.6v15.7a2.1,2.1,0,0,1-2.2,2.1A2.3,2.3,0,0,1,246.1,701.2Z"/><path class="cls-10" d="M397,739.7,265.4,663.3a4.5,4.5,0,0,1-2.2-3.7V643.9a2.2,2.2,0,0,1,2.2-2.1,1.7,1.7,0,0,1,1,.3l131.7,76.4a4.4,4.4,0,0,1,2.1,3.7v15.7A2.1,2.1,0,0,1,398,740,1.9,1.9,0,0,1,397,739.7Z"/><path class="cls-10" d="M107.5,668.5,39.1,629.2a4.1,4.1,0,0,1-2.2-3.7V609.8a2.1,2.1,0,0,1,2.2-2.1,1.9,1.9,0,0,1,1,.3l68.4,39.3a4.5,4.5,0,0,1,2.2,3.7v15.7a2.2,2.2,0,0,1-2.1,2.1A2,2,0,0,1,107.5,668.5Z"/><path class="cls-9" d="M1067.8,383.9l-68.4-39.4a4.2,4.2,0,0,1-2.2-3.7V325.2a2.1,2.1,0,0,1,2.2-2.1l1,.2,68.4,39.4a4.1,4.1,0,0,1,2.2,3.7V382a2.2,2.2,0,0,1-2.2,2.2A1.9,1.9,0,0,1,1067.8,383.9Z"/><path class="cls-9" d="M1045.6,454.3l-29-17.1a4.4,4.4,0,0,1-2.1-3.7V417.9a2.1,2.1,0,0,1,2.2-2.1,2.3,2.3,0,0,1,1.1.3l28.9,17.1a4.1,4.1,0,0,1,2.1,3.7v15.6a2.1,2.1,0,0,1-2.2,2.1A1.7,1.7,0,0,1,1045.6,454.3Z"/><path class="cls-11" d="M1028.3,404.9l-29-17.2a4.1,4.1,0,0,1-2.1-3.6V368.4a2.2,2.2,0,0,1,2.2-2.1l1.1.3,28.9,17.1a4.4,4.4,0,0,1,2.1,3.7V403a2.2,2.2,0,0,1-2.2,2.2A1.9,1.9,0,0,1,1028.3,404.9Z"/><path class="cls-10" d="M1115.8,453.9l-68.4-39.4a4.2,4.2,0,0,1-2.2-3.7V395.2a2.1,2.1,0,0,1,2.2-2.1l1,.2,68.4,39.4a4.1,4.1,0,0,1,2.2,3.7V452a2.2,2.2,0,0,1-2.2,2.2A1.9,1.9,0,0,1,1115.8,453.9Z"/><path class="cls-11" d="M1231.1,716.2l-11.8-7a4.4,4.4,0,0,1-2.1-3.7V689.9a2.1,2.1,0,0,1,2.2-2.1,2.3,2.3,0,0,1,1.1.3l11.8,7a4.1,4.1,0,0,1,2.1,3.6v15.7a2.1,2.1,0,0,1-2.2,2.1A2.3,2.3,0,0,1,1231.1,716.2Z"/><path class="cls-10" d="M1201.6,700.3l-29-17.1a4.4,4.4,0,0,1-2.1-3.7V663.9a2.1,2.1,0,0,1,2.2-2.1,2.3,2.3,0,0,1,1.1.3l28.9,17.1a4.1,4.1,0,0,1,2.1,3.7v15.6a2.1,2.1,0,0,1-2.2,2.1A1.7,1.7,0,0,1,1201.6,700.3Z"/><path class="cls-9" d="M1203.8,661.9l-68.4-39.4a4.2,4.2,0,0,1-2.2-3.7V603.2a2.1,2.1,0,0,1,2.2-2.1l1,.2,68.4,39.4a4.1,4.1,0,0,1,2.2,3.7V660a2.2,2.2,0,0,1-2.2,2.2A1.9,1.9,0,0,1,1203.8,661.9Z"/><path class="cls-2" d="M804.6,743.8l-16.9-9.7a2,2,0,0,1-.8-2.7,2.3,2.3,0,0,1,.7-.7l17-10.8a4,4,0,0,1,4.2-.1l16.9,9.7a2,2,0,0,1,.7,2.7,1.6,1.6,0,0,1-.7.7l-17,10.9A3.8,3.8,0,0,1,804.6,743.8Z"/></svg>