<svg xmlns="http://www.w3.org/2000/svg" xmlns:xlink="http://www.w3.org/1999/xlink" viewBox="0 0 1404 554.3"><defs><style>.cls-1{fill:#9ff5d9;}.cls-2{fill:url(#linear-gradient);}.cls-3{fill:url(#linear-gradient-2);}.cls-4{fill:#f9fbfb;}.cls-5{fill:#eeeff0;}.cls-6{fill:#fff;}.cls-7{fill:url(#linear-gradient-3);}.cls-8{fill:url(#linear-gradient-4);}.cls-9{fill:url(#linear-gradient-5);}.cls-10{fill:url(#linear-gradient-6);}.cls-11{fill:url(#linear-gradient-7);}.cls-12{fill:url(#linear-gradient-8);}.cls-13{fill:url(#linear-gradient-9);}.cls-14{fill:#53edbb;}.cls-15{fill:#d1faed;}.cls-16{fill:url(#linear-gradient-10);}.cls-17{fill:#02e49b;}</style><linearGradient id="linear-gradient" x1="607.42" y1="440.58" x2="294.33" y2="70.71" gradientTransform="matrix(1, 0, 0, -1, 0, 551.24)" gradientUnits="userSpaceOnUse"><stop offset="0.17" stop-color="#f9fbfb"/><stop offset="1" stop-color="#aeb4b6"/></linearGradient><linearGradient id="linear-gradient-2" x1="507.48" y1="500.24" x2="104.17" y2="47.95" gradientTransform="matrix(1, 0, 0, -1, 0, 551.24)" gradientUnits="userSpaceOnUse"><stop offset="0.42" stop-color="#f9fbfb"/><stop offset="1" stop-color="#aeb4b6"/></linearGradient><linearGradient id="linear-gradient-3" x1="135.88" y1="177.22" x2="37.28" y2="60.73" xlink:href="#linear-gradient"/><linearGradient id="linear-gradient-4" x1="100.79" y1="185.73" x2="-17.55" y2="53.02" xlink:href="#linear-gradient-2"/><linearGradient id="linear-gradient-5" x1="425.88" y1="109.22" x2="327.28" y2="-7.27" xlink:href="#linear-gradient"/><linearGradient id="linear-gradient-6" x1="390.79" y1="117.73" x2="272.45" y2="-14.98" xlink:href="#linear-gradient-2"/><linearGradient id="linear-gradient-7" x1="801.88" y1="134.22" x2="703.28" y2="17.73" xlink:href="#linear-gradient"/><linearGradient id="linear-gradient-8" x1="766.79" y1="142.73" x2="648.45" y2="10.02" xlink:href="#linear-gradient-2"/><linearGradient id="linear-gradient-9" x1="2104.33" y1="2068.93" x2="2257" y2="2250.32" gradientTransform="matrix(0.96, -0.28, -0.28, -0.96, -429.48, 2849.94)" gradientUnits="userSpaceOnUse"><stop offset="0" stop-color="#1eb898"/><stop offset="0.16" stop-color="#1ec79c"/><stop offset="0.42" stop-color="#1ed9a2"/><stop offset="0.69" stop-color="#1ee4a5"/><stop offset="1" stop-color="#1ee7a6"/></linearGradient><linearGradient id="linear-gradient-10" x1="1393.39" y1="130.4" x2="1055.52" y2="74.09" gradientTransform="matrix(1, 0, 0, -1, 0, 551.24)" xlink:href="#linear-gradient-9"/></defs><title>Asset 24</title><g id="Layer_2" data-name="Layer 2"><g id="Layer_1-2" data-name="Layer 1"><circle class="cls-1" cx="1113" cy="323.7" r="31"/><path class="cls-2" d="M499.6,456.4l-321-187.2a18.6,18.6,0,0,1-6.7-25.5,17.4,17.4,0,0,1,6.4-6.5l213-130a33.1,33.1,0,0,1,34.1-.4L746.7,294.3a18.5,18.5,0,0,1,6.7,25.4,19.2,19.2,0,0,1-6.4,6.6L534.3,456A34,34,0,0,1,499.6,456.4Z"/><path class="cls-3" d="M507.5,460.7l-329-191.9A29.3,29.3,0,0,1,164,243.6V14.6A14.5,14.5,0,0,1,185.9,2l329,191.9a29.3,29.3,0,0,1,14.5,25.2v229a14.7,14.7,0,0,1-14.6,14.6A14.3,14.3,0,0,1,507.5,460.7Z"/><path class="cls-4" d="M325.1,354.6,218.7,292.5V220.9a4.2,4.2,0,0,1,4.2-4.2,5.4,5.4,0,0,1,2.2.5l95.8,56a8.4,8.4,0,0,1,4.2,7.3Z"/><path class="cls-5" d="M372.5,203.4l-33.4-18.9a9.8,9.8,0,0,1-5.1-8.7V88.7l46,26v84.4a5,5,0,0,1-5,5A4.5,4.5,0,0,1,372.5,203.4Z"/><path class="cls-6" d="M363,146.9l-14-8.1a4,4,0,0,1-2-3.5V118.1a2,2,0,0,1,2-2,1.7,1.7,0,0,1,1,.3l14,8.1a4,4,0,0,1,2,3.5v17.2a2,2,0,0,1-2,2A1.7,1.7,0,0,1,363,146.9Z"/><path class="cls-7" d="M98.5,481.8,4.3,426.9a5.6,5.6,0,0,1-2-7.5,5.8,5.8,0,0,1,1.9-1.9L72,374a9.9,9.9,0,0,1,10-.1l94.3,55a5.5,5.5,0,0,1,1.9,7.5,5.5,5.5,0,0,1-1.8,1.9l-67.8,43.4A9.9,9.9,0,0,1,98.5,481.8Z"/><path class="cls-8" d="M100.8,485.7,4.2,429.4A8.6,8.6,0,0,1,0,422V354.8a4.3,4.3,0,0,1,4.3-4.3,3.9,3.9,0,0,1,2.1.6L103,407.4a8.7,8.7,0,0,1,4.2,7.4V482a4.2,4.2,0,0,1-4.2,4.3A4,4,0,0,1,100.8,485.7Z"/><path class="cls-9" d="M388.5,549.8l-94.2-54.9a5.6,5.6,0,0,1-2-7.5,5.8,5.8,0,0,1,1.9-1.9L362,442a9.9,9.9,0,0,1,10-.1l94.3,55a5.5,5.5,0,0,1,1.9,7.5,5.5,5.5,0,0,1-1.8,1.9l-67.8,43.4A9.9,9.9,0,0,1,388.5,549.8Z"/><path class="cls-10" d="M390.8,553.7l-96.6-56.3A8.7,8.7,0,0,1,290,490V422.8a4.3,4.3,0,0,1,4.3-4.3,3.9,3.9,0,0,1,2.1.6L393,475.4a8.7,8.7,0,0,1,4.2,7.4V550a4.2,4.2,0,0,1-4.2,4.3A4,4,0,0,1,390.8,553.7Z"/><path class="cls-11" d="M764.5,524.8l-94.2-54.9a5.6,5.6,0,0,1-2-7.5,5.8,5.8,0,0,1,1.9-1.9L738,417a9.9,9.9,0,0,1,10-.1l94.3,55a5.5,5.5,0,0,1,1.9,7.5,5.5,5.5,0,0,1-1.8,1.9l-67.8,43.4A9.9,9.9,0,0,1,764.5,524.8Z"/><path class="cls-12" d="M766.8,528.7l-96.6-56.3A8.7,8.7,0,0,1,666,465V397.8a4.3,4.3,0,0,1,4.3-4.3,3.9,3.9,0,0,1,2.1.6L769,450.4a8.7,8.7,0,0,1,4.2,7.4V525a4.2,4.2,0,0,1-4.2,4.3A4,4,0,0,1,766.8,528.7Z"/><circle class="cls-1" cx="1094.4" cy="122.8" r="82.6"/><circle class="cls-13" cx="1094.4" cy="122.8" r="74"/><polygon class="cls-14" points="1056.3 109.3 1069.8 156.5 1103.7 158.7 1090 111.1 1119.7 89.4 1086.5 87.2 1056.3 109.3"/><polygon class="cls-14" points="1092.9 111.7 1100.3 137.6 1134.2 139.8 1120.3 91.6 1092.9 111.7"/><circle class="cls-15" cx="1361" cy="178.7" r="31"/><circle class="cls-1" cx="1321.4" cy="432.8" r="82.6"/><circle class="cls-16" cx="1321.4" cy="432.8" r="74"/><polygon class="cls-14" points="1304.1 396.3 1280.2 439.3 1302.6 464.8 1326.6 421.4 1363 427.1 1341 402.1 1304.1 396.3"/><polygon class="cls-14" points="1328.2 423.9 1315.2 447.5 1337.5 472.9 1361.8 429.1 1328.2 423.9"/><circle class="cls-17" cx="586" cy="178.7" r="31"/><circle class="cls-15" cx="596" cy="418.7" r="31"/></g></g></svg>